<mxfile host="app.diagrams.net" modified="2024-05-19T10:00:36.243Z" agent="Mozilla/5.0 (Windows NT 10.0; Win64; x64) AppleWebKit/537.36 (KHTML, like Gecko) Chrome/125.0.0.0 Safari/537.36 Edg/125.0.0.0" version="24.4.4" etag="C25fcERKRa966lTXDu22" type="github">
  <diagram name="第 1 页" id="r63ObCo9PnT3-7kkZjKU">
    <mxGraphModel>
      <root>
        <mxCell id="0" />
        <mxCell id="1" parent="0" />
      </root>
    </mxGraphModel>
  </diagram>
</mxfile>
